<?xml version="1.0" encoding="utf-8"?>
<!-- Generator: Adobe Illustrator 24.2.3, SVG Export Plug-In . SVG Version: 6.00 Build 0) -->
<svg version="1.1" id="Layer_1" xmlns="http://www.w3.org/2000/svg" xmlns:xlink="http://www.w3.org/1999/xlink" x="0px" y="0px" viewBox="0 0 79 37" style="enable-background:new 0 0 79 37;" xml:space="preserve">
	<style type="text/css">
		.st0{enable-background:new    ;}
		.st1{fill:#FA0060;}
	</style>
	<g class="st0">
		<path class="st1" d="M0.7,7.3C0.7,5.4,2.2,4,4.1,4C6,4,7.5,5.4,7.5,7.3c0,1.9-1.5,3.3-3.3,3.3C2.2,10.7,0.7,9.3,0.7,7.3z M1.3,32.4
		V12.7h5.7v19.7H1.3z" />
		<path class="st1" d="M31,22.6c0,6-4.2,10.4-9.8,10.4c-2.7,0-4.6-1.2-5.9-2.7v2.2H9.7V5h5.7v9.6c1.3-1.4,3.2-2.4,5.7-2.4
		C26.7,12.2,31,16.6,31,22.6z M25.2,22.5c0-2.8-2-5.1-5-5.1c-3,0-5,2.3-5,5.1c0,2.9,2.1,5.2,5,5.2C23.2,27.8,25.2,25.4,25.2,22.5z" />
		<path class="st1" d="M52.2,24.5H37.6c0.6,2.2,2.3,3.7,5.4,3.7c2.1,0,4.6-0.8,6.2-1.9l2.2,3.9c-1.9,1.4-5,2.7-8.6,2.7
		c-7.4,0-10.8-5-10.8-10.3c0-5.9,4.1-10.3,10.4-10.3c5.7,0,10,3.6,10,9.9C52.3,22.9,52.3,23.7,52.2,24.5z M37.6,20.4h9.3
		c-0.5-2.2-2.2-3.7-4.5-3.7C40.1,16.8,38.3,18.1,37.6,20.4z" />
		<path class="st1" d="M65.1,32.4l-3.4-6.2L58,32.4h-6.4l6.4-10l-5.7-9.7h6.4l3,5.8l3.3-5.8h6.3l-6,9.8l6.2,9.9H65.1z" />
		<path class="st1" d="M71.9,29.8c0-1.8,1.4-3.1,3.2-3.1c1.7,0,3.1,1.4,3.1,3.1c0,1.8-1.4,3.2-3.1,3.2C73.3,33,71.9,31.7,71.9,29.8z" />
	</g>
</svg>
